<svg width="251" height="75" viewBox="0 0 251 75" fill="none" xmlns="http://www.w3.org/2000/svg">
<path d="M198.215 19.5007H200.653L201.72 22.8313L205.224 37.0617L209.033 52.6546L208.119 54.3199L206.138 55.5309L203.548 55.9851L201.872 55.2282L191.359 45.9935L187.398 54.0171L184.96 55.5309L182.37 55.9851H180.846L180.085 55.2282L182.675 48.5671L185.265 42.0575L184.96 40.3922L184.046 39.7867V37.8186L185.265 36.9103L187.398 36.002L188.769 34.6395L191.512 26.9187L195.016 27.827L196.375 34.6395L195.625 35.245L194.254 38.1214V39.0297L196.997 41.4519H197.911L197.301 37.8186L195.625 32.0659L191.512 26.9187L193.34 21.9229L194.406 20.8632L198.215 19.5007Z" fill="#F297A6"/>
<path d="M79.9684 13.6091L82.3935 12.8903L83.606 12.6506L84.8186 12.8903L86.0312 13.6091L88.6988 13.8487L98.1568 16.9637L100.824 16.7241L102.037 17.443L102.279 19.1203L102.037 20.3184L101.309 21.9957L100.582 22.9541L99.8543 23.9126L94.5191 28.7049L90.3964 32.5388L89.9113 32.7784L90.1539 33.2576L92.094 33.7369L93.3065 34.6953L95.4891 36.3726L97.1867 38.0499L99.3693 34.6953L101.309 33.4972L103.25 33.2576H104.462L105.432 33.9765L105.19 35.6538L104.341 36.9717L103.25 39.9669L101.309 46.4365L100.339 47.6346L98.6418 49.0723L95.9741 49.7911L94.2766 49.3119L93.549 48.3534L92.8215 44.5196L91.1239 41.165L88.9413 39.0084L86.2737 37.3311H84.8186V34.6953L85.3036 29.903L86.2737 29.6634L87.9713 28.2257L90.1539 26.3088L92.8215 24.1522L94.2766 22.7145L95.0041 21.5164L90.3964 20.0787L85.7886 19.1203L85.5461 22.4749L85.3036 37.0915L84.8186 46.1969L83.8485 47.1554L80.6959 48.3534L78.5133 48.1138L77.7857 47.395L78.0283 39.4876L77.3007 38.0499L78.0283 36.3726L78.2708 34.6953L78.5133 29.903L78.7558 20.7976L78.9983 15.0468L79.9684 13.6091Z" fill="#EA7589"/>
<path d="M30.1389 18.5172L30.3147 18.691C30.4697 18.844 30.6787 18.9299 30.8964 18.9299C31.2687 18.9299 31.5952 19.1784 31.6942 19.5373L32.1442 21.1675C32.2172 21.4317 32.2541 21.7046 32.2541 21.9787V26.8372L31.7691 36.9011L31.0416 46.965L30.9156 47.8363C30.8423 48.3432 31.014 48.8547 31.3783 49.2146C31.6317 49.465 31.9608 49.6244 32.3143 49.6681L32.8786 49.7378C33.4236 49.8051 33.9768 49.7346 34.4875 49.5328L35.5405 49.1166C35.9337 48.9612 36.2989 48.7425 36.6216 48.4692C37.3973 47.8123 37.8841 46.8771 37.9772 45.8648L38.0744 44.8084L38.7209 37.7823C38.7668 37.2831 39.1855 36.9011 39.6868 36.9011H41.2271H41.9261C42.4729 36.9011 42.9116 37.3527 42.8958 37.8992L42.6821 45.2877V45.9336C42.6821 46.585 42.9802 47.2006 43.4913 47.6045C43.7564 47.8141 44.0676 47.9576 44.3992 48.0231L44.5261 48.0482C44.9089 48.1238 45.3036 48.1146 45.6823 48.021L46.2731 47.8751C46.7865 47.7482 47.2785 47.5468 47.7333 47.2771L48.2599 46.965L48.9676 46.4405C49.1413 46.3119 49.2917 46.1546 49.4126 45.9755C49.6103 45.6825 49.7226 45.3402 49.7369 44.987L49.9575 39.5369V31.8691L50.2 23.0033V15.096V14.8668C50.2 14.4081 49.9827 13.9765 49.6141 13.7033C49.3646 13.5185 49.0624 13.4187 48.7519 13.4187H48.0174L47.0605 13.5538C46.5688 13.6232 46.0883 13.7564 45.631 13.95L45.076 14.185C44.7762 14.312 44.5033 14.4947 44.2717 14.7235C44.023 14.9693 43.827 15.2632 43.6958 15.5873L43.6403 15.7245C43.4879 16.101 43.4065 16.5024 43.4004 16.9086L43.1799 31.5038C43.1726 31.988 42.8094 32.3926 42.3289 32.4519L41.2271 32.588H40.257H39.1231C38.9551 32.588 38.8274 32.437 38.8554 32.2713C38.9812 31.5253 39.0445 30.77 39.0445 30.0134V28.5145L38.8019 23.9618V21.0864V19.0743C38.8019 18.3468 38.6526 17.627 38.3631 16.9596L38.3099 16.837C38.1536 16.4767 37.9491 16.1394 37.702 15.8341L37.5359 15.629C37.2516 15.2778 36.8946 14.9924 36.4895 14.7923C35.9414 14.5215 35.326 14.4171 34.7192 14.492L34.1875 14.5577C33.8694 14.597 33.5559 14.6673 33.2514 14.7675L32.2541 15.096L31.0485 15.6065C30.7255 15.7433 30.4411 15.9575 30.2203 16.2301L30.0535 16.4362C29.7577 16.8014 29.6405 17.2797 29.7337 17.7403L29.7426 17.784C29.7989 18.0624 29.9369 18.3176 30.1389 18.5172Z" fill="#E76B80"/>
<path d="M71.2985 18.9297L72.6306 18.7652C73.0248 18.7165 73.424 18.8 73.7656 19.0025C74.2021 19.2613 74.5086 19.6927 74.6093 20.1901L74.6178 20.2319C74.6679 20.4795 74.6679 20.7346 74.6178 20.9821L74.6044 21.0483C74.5052 21.5385 74.2436 21.9809 73.8619 22.3042L73.4067 22.6897C72.9763 23.0542 72.4728 23.3221 71.93 23.4753L71.5653 23.5783C71.2265 23.6739 70.8796 23.7379 70.5289 23.7694L68.3884 23.9617C66.7776 23.9617 65.1727 23.7664 63.6089 23.3801L62.4516 23.0942C62.2642 23.0479 62.0831 23.1898 62.0831 23.3828V26.1182L61.4534 30.681C61.4065 31.0207 61.7173 31.3004 62.0501 31.2182L63.2956 30.9105L65.6325 30.5257C66.0127 30.4631 66.4 30.4553 66.7824 30.5025L67.6101 30.6047C67.9575 30.6476 68.2816 30.805 68.5306 31.0511C68.8969 31.4129 69.065 31.9316 68.9793 32.4392C68.9114 32.8421 68.6901 33.2029 68.3619 33.4462L67.5977 34.0125C67.1595 34.3371 66.6588 34.5674 66.1272 34.6886L63.7807 35.2236L60.939 35.6556C60.7498 35.6843 60.5952 35.8216 60.5443 36.006L59.3819 40.2173C59.286 40.565 59.5896 40.8921 59.9435 40.8221L60.3855 40.7348L62.1297 40.2424C63.2275 39.9325 64.3541 39.7359 65.4919 39.6556C66.6117 39.5765 67.7366 39.6106 68.8495 39.7572L70.8135 40.0159L73.6954 40.6261C74.0371 40.6985 74.3731 40.7957 74.7007 40.9171L76.04 41.4133C76.1117 41.4399 76.1769 41.4814 76.2313 41.5352C76.3337 41.6363 76.3913 41.7742 76.3913 41.9181V42.3033C76.3913 42.5324 76.3374 42.7582 76.234 42.9626L76.0041 43.4169C75.7796 43.8604 75.4656 44.2526 75.0819 44.5685L75.0424 44.6011C74.4972 45.05 73.8387 45.3397 73.1394 45.4384L73.0782 45.4471C72.702 45.5002 72.3202 45.5002 71.944 45.4471L71.3979 45.37C71.0089 45.3151 70.6244 45.2314 70.2476 45.1198L69.779 44.9809C68.8542 44.7067 67.9045 44.5252 66.9438 44.4389L65.7208 44.329H64.5798C63.7262 44.329 62.8751 44.4214 62.0413 44.6044C61.4235 44.7401 60.8175 44.9251 60.2292 45.1576L58.4354 45.8665C57.7962 46.1191 57.1764 46.4183 56.581 46.7615L55.3366 47.4787C54.8258 47.7731 54.2701 47.9816 53.6918 48.0959L52.7627 48.2795C52.3562 48.3598 51.9352 48.3215 51.5499 48.1693L51.2455 48.049C51.0384 47.9671 50.8609 47.8245 50.7363 47.6398C50.5504 47.3644 50.4986 47.0198 50.5951 46.7018L51.17 44.8083L52.3826 41.4536L53.3526 37.6198L54.0802 34.2652L54.5652 30.1917L55.0502 25.8786L55.0688 25.6405C55.2178 23.7257 55.2116 21.802 55.0502 19.8882L54.7328 18.0064C54.6213 17.345 54.4575 16.6935 54.2431 16.058C53.9735 15.2588 53.625 14.4885 53.2027 13.7583L52.8676 13.1789L52.8339 13.1289C52.5442 12.6995 52.4306 12.1752 52.5168 11.6645C52.5872 11.247 52.7872 10.8623 53.0883 10.5647L53.5379 10.1205C53.8962 9.76651 54.3184 9.48381 54.7822 9.28742L55.3078 9.06485C55.6198 8.93274 55.9477 8.84186 56.2831 8.79451L56.8653 8.71233C57.2627 8.65623 57.6679 8.72132 58.0277 8.8991L58.255 9.01138C58.3802 9.07326 58.5181 9.10545 58.6578 9.10545C58.8356 9.10545 59.0096 9.15759 59.1581 9.25542L59.2475 9.31428C59.5115 9.48823 59.701 9.75468 59.7785 10.0612L60.015 10.9958C60.0999 11.3314 60.2309 11.6536 60.4042 11.9533L60.7841 12.6102C61.0031 12.9889 61.2488 13.3515 61.5194 13.6952L62.8106 15.3355L63.1358 15.7853C63.7225 16.5969 64.4518 17.2951 65.288 17.846L65.3363 17.8777C65.9134 18.2579 66.5383 18.56 67.1948 18.7762L67.3869 18.8395C68.0503 19.058 68.7443 19.1693 69.4428 19.1693C69.8706 19.1693 70.2973 19.1276 70.7169 19.0446L71.2985 18.9297Z" fill="#EA7589"/>
<path d="M107.918 13.4184L110.343 12.6996L111.556 12.46L112.768 12.6996L113.981 13.4184L116.648 13.658L126.106 16.7731L128.774 16.5334L129.986 17.2523L130.229 18.9296L129.986 20.1277L129.259 21.805L128.531 22.7635L127.804 23.7219L122.469 28.5142L118.346 32.3481L117.861 32.5877L118.103 33.067L120.043 33.5462L121.256 34.5046L123.439 36.182L125.136 37.8593L127.319 34.5046L129.259 33.3066L131.199 33.067H132.412L133.382 33.7858L133.139 35.4631L132.29 36.781L131.199 39.7762L129.259 46.2458L128.289 47.4439L126.591 48.8816L123.924 49.6005L122.226 49.1212L121.499 48.1628L120.771 44.3289L119.073 40.9743L116.891 38.8177L114.223 37.1404H112.768V34.5046L113.253 29.7123L114.223 29.4727L115.921 28.035L118.103 26.1181L120.771 23.9615L122.226 22.5238L122.954 21.3258L118.346 19.8881L113.738 18.9296L113.496 22.2842L113.253 36.9008L112.768 46.0062L111.798 46.9647L108.645 48.1628L106.463 47.9232L105.735 47.2043L105.978 39.297L105.25 37.8593L105.978 36.182L106.22 34.5046L106.463 29.7123L106.705 20.6069L106.948 14.8561L107.918 13.4184Z" fill="#EC8899"/>
<path d="M138.34 14.5453L137.507 15.0941C136.566 15.714 135.877 16.6493 135.564 17.7318L134.352 25.6392L134.109 28.275V34.9842L134.281 39.0531C134.328 40.171 134.497 41.2805 134.785 42.3617L135.262 44.1527C135.462 44.9022 135.805 45.6055 136.274 46.2232L136.436 46.436C136.821 46.9431 137.305 47.3661 137.86 47.6791C138.425 47.9983 139.051 48.1961 139.697 48.2599L140.142 48.3039C140.805 48.3694 141.474 48.3371 142.128 48.208L142.61 48.1126C143.245 47.9871 143.861 47.7782 144.442 47.4915C145.147 47.1428 145.793 46.683 146.353 46.1296L146.765 45.7225C147.219 45.2737 147.633 44.7861 148.002 44.2652L148.697 43.2837C148.836 43.0876 149.145 43.1859 149.145 43.4262V46.2462L148.902 51.997L147.932 58.4666L146.962 62.0608L145.004 66.7917C144.854 67.1516 144.678 67.4996 144.476 67.8326L143.636 69.2156C143.433 69.5506 143.138 69.8208 142.787 69.9944C142.502 70.1348 142.19 70.2078 141.873 70.2078H141.576C141.13 70.2078 140.688 70.1181 140.276 69.9439L139.978 69.8177C139.464 69.6001 138.991 69.2968 138.579 68.9208L136.211 66.7607C136.103 66.6628 136.005 66.5553 135.917 66.4396C135.536 65.9371 134.971 65.6056 134.346 65.5174L134.057 65.4766C133.77 65.4361 133.478 65.4361 133.191 65.4766L132.83 65.5275C132.232 65.612 131.65 65.7915 131.108 66.0593L130.413 66.4029C130.13 66.5424 129.872 66.7264 129.648 66.9478L129.2 67.3906C128.927 67.66 128.774 68.0274 128.774 68.4107C128.774 68.794 128.927 69.1613 129.2 69.4307L130.471 70.687L132.084 72.0151C132.946 72.7241 133.896 73.3176 134.91 73.7804L135.176 73.9014C136.077 74.3124 137.031 74.5964 138.01 74.7453C139.121 74.9141 140.252 74.9071 141.36 74.7246L141.761 74.6586C142.318 74.5669 142.866 74.4323 143.402 74.2559C144.316 73.9546 145.187 73.5337 145.991 73.004L146.449 72.7023C147.274 72.1588 148.044 71.5354 148.747 70.8409C149.655 69.9433 150.446 68.9335 151.099 67.8361L151.492 67.175C152.189 66.0048 152.771 64.7696 153.229 63.487L153.995 61.342L154.965 57.5081L155.935 51.7573L156.42 47.6839V44.3292V40.4954L156.178 34.0257L155.693 27.3165L154.723 18.9299L153.995 12.9395L153.932 12.6253C153.82 12.0741 153.437 11.6167 152.914 11.41C152.668 11.3129 152.403 11.2758 152.14 11.3017L151.156 11.3989C150.468 11.467 149.797 11.6589 149.177 11.9654L148.175 12.4603L147.833 12.6289C147.435 12.826 147.142 13.1879 147.033 13.6193C146.986 13.8035 146.975 13.9947 146.998 14.1832L147.205 15.8149L147.217 15.8675C147.531 17.2658 147.69 18.6947 147.69 20.128L147.447 23.7222L145.992 30.9107L145.265 35.4634L144.806 37.0053C144.304 38.6896 143.653 40.3257 142.859 41.8938L142.687 42.235C142.65 42.3085 142.545 42.3085 142.507 42.235C142.244 41.7152 142.027 41.1736 141.858 40.6161L141.384 39.0577C141.062 37.1441 140.899 35.2069 140.899 33.2663V30.6711L141.384 25.8788L142.112 19.6488L142.761 15.5882C142.812 15.2683 142.761 14.9404 142.615 14.6514C142.315 14.0589 141.668 13.7258 141.012 13.8256L139.692 14.0262C139.209 14.0996 138.748 14.2767 138.34 14.5453Z" fill="#EC8899"/>
<path d="M18.0367 7.61776L18.8841 7.89685C18.9052 7.90379 18.9273 7.90733 18.9495 7.90733C19.0649 7.90733 19.1585 7.81377 19.1585 7.69835V7.25395C19.1585 7.21042 19.1628 7.16699 19.1714 7.12432L19.401 5.99041L19.9711 4.30038C20.0759 3.98976 20.2028 3.68705 20.3508 3.39455C20.6854 2.73332 21.1248 2.13058 21.652 1.60971L22.181 1.08705C22.4278 0.843164 22.7122 0.640507 23.0233 0.486815L23.4214 0.290157C23.8023 0.101983 24.2346 0.0446365 24.6514 0.126998C25.0231 0.200452 25.365 0.381607 25.6345 0.647913L25.7126 0.725047C26.0251 1.03391 26.2426 1.42597 26.339 1.8547L26.543 2.76196C26.6316 3.15586 26.6763 3.55836 26.6763 3.9621V5.51117L26.4338 12.6997L26.1913 15.8147L26.0206 17.1642C25.8114 18.8174 25.4629 20.4501 24.9787 22.0447L24.2328 23.8872C24.0837 24.2555 23.9018 24.6098 23.6894 24.9457L23.4075 25.3912C23.0062 26.0257 22.454 26.551 21.8002 26.9201L21.5549 27.0586C21.253 27.229 20.9235 27.3451 20.5815 27.4014L20.4297 27.4264C19.9184 27.5106 19.3936 27.4324 18.9291 27.2029C18.4483 26.9654 18.0575 26.5784 17.8154 26.0999L17.2184 24.9201L16.4908 23.0032L15.5208 20.1278L14.8711 18.523C14.6579 17.9963 14.4025 17.4875 14.1075 17.0018C13.9809 16.7933 13.6763 16.7996 13.5584 17.0131L12.3681 19.1693C11.3995 21.2428 10.5937 23.3886 9.95799 25.5871L9.943 25.6389L9.21546 28.7539L8.24541 33.067L7.93319 34.1468C7.81816 34.5445 7.73428 34.9507 7.68231 35.3615L7.64096 35.6884C7.55945 36.3327 7.58359 36.9859 7.71243 37.6225L7.84138 38.2595C7.94749 38.7837 8.17865 39.2745 8.51521 39.6902C8.81679 40.0627 9.19543 40.3654 9.62512 40.5777L9.87924 40.7033C10.2435 40.8832 10.6299 41.0143 11.0285 41.093L11.1258 41.1123C11.4682 41.1799 11.8163 41.214 12.1653 41.214H12.4456C13.0389 41.214 13.6305 41.1498 14.2099 41.0226L15.5208 40.7348L18.1884 39.7763L19.401 39.2971L19.8399 39.1525C20.0121 39.0958 20.1285 38.9349 20.1285 38.7536V38.7286C20.1285 38.6324 20.09 38.5401 20.0215 38.4725C19.9367 38.3887 19.8989 38.2684 19.9205 38.1512L20.3131 36.0178C20.3516 35.8081 20.4052 35.6014 20.4734 35.3993L20.527 35.2403C20.7451 34.5939 21.0593 33.9839 21.459 33.4311L21.808 32.9483C21.9814 32.7084 22.1744 32.4832 22.3851 32.2751L22.6338 32.0294C23.0596 31.6087 23.577 31.2923 24.1456 31.105L24.361 31.0341C24.6096 30.9522 24.8696 30.9105 25.1313 30.9105H25.1676C25.522 30.9105 25.8715 30.9921 26.1892 31.1491C26.5096 31.3073 26.7888 31.5379 27.0048 31.8225L27.1059 31.9556C27.3032 32.2156 27.4571 32.5059 27.5614 32.8152L27.8889 33.7859L28.2416 35.1801C28.3295 35.5272 28.3739 35.8839 28.3739 36.242C28.3739 36.8347 28.2522 37.4211 28.0164 37.9648L27.8442 38.3616C27.7125 38.6653 27.5575 38.9583 27.3806 39.2381L27.156 39.593C26.6761 40.3517 26.1114 41.0533 25.4728 41.6843L23.5237 43.6101C21.9091 44.8864 20.2034 46.043 18.4203 47.0707L18.1884 47.2044L14.5507 48.8817C13.1007 49.5185 11.5806 49.9816 10.0219 50.2617L9.70048 50.3194L7.51787 50.559H6.49028C5.88581 50.559 5.2852 50.4627 4.71107 50.2736C4.31998 50.1448 3.94404 49.9739 3.58985 49.7639L2.91014 49.3609L2.45303 49.0222C2.11244 48.7698 1.80511 48.4754 1.53836 48.1459C1.16249 47.6817 0.87229 47.1542 0.681353 46.5883L0.633633 46.4468C0.534716 46.1536 0.459168 45.853 0.407697 45.5479L0.242512 44.5686L0 41.9328C0 40.497 0.103129 39.063 0.308592 37.6419L0.485024 36.4217L0.970048 34.0255L2.66763 28.9936L5.09275 22.7635L6.54783 19.6485L7.76039 17.2524L9.21546 14.377L10.1855 12.6997L11.2918 11.138C11.6853 10.5827 12.1265 10.063 12.6106 9.58465L12.7185 9.47811C13.1306 9.0709 13.5819 8.70528 14.0657 8.38657L14.2135 8.28918C14.5983 8.03573 15.0149 7.83432 15.4526 7.69019L15.6725 7.61776C16.0539 7.49213 16.453 7.4281 16.8546 7.4281C17.2562 7.4281 17.6553 7.49213 18.0367 7.61776Z" fill="#DE5B71"/>
<path d="M158.344 23.0173L158.603 22.5034C159.085 21.5456 159.68 20.6488 160.375 19.8324L160.701 19.4493C161.615 18.3765 162.654 17.4171 163.796 16.5918L164.825 15.8483L167.069 14.5368C168.402 13.7574 169.796 13.0861 171.237 12.5294C172.789 11.9296 174.39 11.465 176.022 11.1407L181.065 10.1386L187.81 9.64209H192.421C192.512 9.64209 192.602 9.65099 192.691 9.66866C193.34 9.79752 193.807 10.3665 193.807 11.0276V11.4307C193.807 11.7237 193.738 12.0126 193.606 12.2743L192.557 14.3588L192.414 14.608C191.853 15.584 191.05 16.3993 190.083 16.9758C189.406 17.3793 188.662 17.6577 187.887 17.7978L187.369 17.8914C186.666 18.0184 185.951 18.0654 185.238 18.0317L181.065 17.8342H179.331C178.853 17.8342 178.407 18.0724 178.14 18.4693C178.091 18.5422 178.049 18.6196 178.014 18.7003L177.805 19.1856C177.482 19.9342 177.289 20.7323 177.235 21.5457L177.067 24.0404L176.568 31.2396V42.2045C176.568 42.4136 176.787 42.5497 176.975 42.4567C177.034 42.427 177.103 42.4195 177.168 42.4356L177.58 42.5381C177.893 42.6158 178.166 42.8073 178.346 43.0752C178.49 43.2893 178.566 43.5413 178.566 43.7992V44.5258C178.566 44.7701 178.542 45.0138 178.494 45.2532L178.067 47.3756L177.623 49.0276C177.254 50.4019 176.694 51.7174 175.958 52.9355L175.477 53.733C175.04 54.4559 174.502 55.1118 173.877 55.6804L172.31 57.1079C171.992 57.398 171.591 57.5822 171.164 57.6353L171.027 57.6522C170.294 57.7433 169.576 57.3946 169.194 56.7621C169.113 56.6284 169.049 56.4851 169.004 56.3355L168.728 55.4194C168.459 54.5301 168.323 53.6062 168.323 52.6773V51.5958V49.8316C168.323 47.2054 168.53 44.5832 168.942 41.9895L169.072 41.1694L169.822 30.7431L170.322 24.7851L171.133 20.3523C171.217 19.8938 170.774 19.5155 170.334 19.6698L168.148 20.4363C167.434 20.6868 166.751 21.0174 166.111 21.4218C164.934 22.1663 163.924 23.1485 163.148 24.3054L162.826 24.7851L162.149 25.9072C161.623 26.7784 160.773 27.4054 159.785 27.6507L159.532 27.7136C159.397 27.7471 159.258 27.7641 159.119 27.7641C158.355 27.7641 157.682 27.2517 157.471 26.5179C157.379 26.1988 157.381 25.8573 157.477 25.5394L157.909 24.1082C158.022 23.7327 158.168 23.3677 158.344 23.0173Z" fill="#F297A6"/>
<path d="M223.031 5.63811L223.377 5.73653C223.785 5.85225 224.125 6.13358 224.316 6.5121C224.447 6.77255 224.5 7.06532 224.469 7.3552L222.018 29.9981L219.632 52.7563C219.559 53.4559 219.278 54.1177 218.826 54.6567C218.461 55.092 217.997 55.4327 217.472 55.65L216.014 56.2537C215.524 56.4562 215 56.5605 214.471 56.5605H213.983C213.681 56.5605 213.383 56.4904 213.112 56.3559C212.446 56.025 212.025 55.3454 212.025 54.6016V54.078L213.524 39.1832L215.023 26.7709L215.772 18.0822L216.424 12.47C216.489 11.9098 216.607 11.357 216.776 10.819L217.202 9.46614C217.569 8.29816 218.343 7.30063 219.383 6.6547C219.64 6.49496 219.911 6.35837 220.193 6.24654L221.531 5.7144C222.009 5.52455 222.536 5.49773 223.031 5.63811Z" fill="#F4ACB9"/>
<path d="M236.009 19.3234L235.598 25.0433C235.566 25.4912 236.095 25.7509 236.43 25.4516L238.008 24.0401L241.256 20.8129L242.382 19.8341C242.955 19.336 243.643 18.9894 244.384 18.8257L244.742 18.7468C245.242 18.6364 245.761 18.6518 246.254 18.7916L246.884 18.9706C247.123 19.0384 247.333 19.1824 247.483 19.3808C247.79 19.7876 247.79 20.3487 247.483 20.7555L246.503 22.0541C245.174 23.8695 243.657 25.5393 241.977 27.0358L237.832 30.7283C237.684 30.86 237.812 31.1018 238.004 31.054L239.451 30.6946C239.986 30.5617 240.536 30.4945 241.087 30.4945C241.86 30.4945 242.628 30.6266 243.357 30.8853L244.623 31.3346C245.367 31.5987 246.044 32.0244 246.604 32.581C247.195 33.1679 247.64 33.8845 247.905 34.6738L248.586 36.7043C248.862 37.5277 249.063 38.3744 249.187 39.234L250.946 51.4697C250.982 51.7187 251 51.97 251 52.2215V52.8714C251 53.4961 250.814 54.1067 250.466 54.6255C250.161 55.0801 249.743 55.4473 249.252 55.6908L248.94 55.8461C248.323 56.1526 247.643 56.3121 246.954 56.3121H246.253C245.753 56.3121 244.704 56.2128 244.504 55.8157C244.304 55.4185 244.088 54.6572 244.004 54.3262L243.005 48.12L241.822 40.1265C241.778 39.829 241.711 39.5354 241.622 39.2481L241.358 38.3936C240.979 37.171 240.049 36.1968 238.845 35.7619C238.294 35.5626 237.706 35.4845 237.121 35.5329L235.116 35.6989C235.054 35.704 235.004 35.7512 234.995 35.8126L234.261 40.9208L231.608 53.8609C231.544 54.1697 231.44 54.4688 231.299 54.7505C230.951 55.4419 230.388 56.0018 229.695 56.3462L229.132 56.6258C228.558 56.911 227.938 57.0929 227.301 57.1632L226.471 57.2548C226.169 57.2882 225.864 57.2799 225.564 57.2303L224.894 57.1194C224.649 57.0788 224.422 56.9626 224.245 56.787C223.948 56.4921 223.827 56.0638 223.924 55.6569L225.016 51.099L226.515 44.3963L227.457 37.3779C227.49 37.1316 227.337 36.8985 227.098 36.8307L225.766 36.4524L225.371 36.374C224.875 36.2753 224.517 35.8393 224.517 35.3327C224.517 34.9507 224.722 34.5988 225.052 34.406C225.648 34.0574 226.366 33.622 226.515 33.4734C226.668 33.3218 227.316 32.871 227.836 32.5189C228.104 32.3377 228.271 32.0403 228.282 31.7172L228.514 24.7848V17.0892L228.313 12.8849C228.282 12.2349 228.49 11.5961 228.898 11.0892C229.139 10.7898 229.442 10.5462 229.786 10.3751L230.763 9.89L232.573 9.29031C232.863 9.19423 233.167 9.14526 233.473 9.14526H233.732C234.078 9.14526 234.417 9.23873 234.714 9.41577C235.217 9.71537 235.555 10.228 235.633 10.8079L236.009 13.6137V19.3234Z" fill="#F4ACB9"/>
</svg>
